PathFileType	4	(X/Y/Z)	C:\Users\WrightLab\Desktop\Jo\P5V139.trc
DataRate	CameraRate	NumFrames	NumMarkers	Units	OrigDataRate	OrigDataStartFrame	OrigNumFrames
100.00	100.00	       28	19	mm	100.00	429	       571
Frame#	Time	Headset_Front			Headset_Back			Headset_Left			Headset_Right			Left_Shoulder			Right_Shoulder			Sternum			C7			Left Elbow			Right Elbow			Left Wrist			Right Wrist			Left ASIS			Right ASIS			S2			Left Knee			Right Knee			Left Ankle			Right Ankle			
		X1	Y1	Z1	X2	Y2	Z2	X3	Y3	Z3	X4	Y4	Z4	X5	Y5	Z5	X6	Y6	Z6	X7	Y7	Z7	X8	Y8	Z8	X9	Y9	Z9	X10	Y10	Z10	X11	Y11	Z11	X12	Y12	Z12	X13	Y13	Z13	X14	Y14	Z14	X15	Y15	Z15	X16	Y16	Z16	X17	Y17	Z17	X18	Y18	Z18	X19	Y19	Z19	

429	4.280																															-329.12326	1228.87634	1675.89417				-370.62198	969.98981	1731.59045							-306.53983	545.35352	1800.30505										
430	4.290																															-327.53406	1231.53174	1674.93567				-368.61716	972.59613	1730.37903							-298.09042	550.56744	1797.91687										
431	4.300																															-325.68814	1233.74805	1676.72754				-368.11517	973.37305	1732.74951							-291.73035	556.43951	1793.78918										
432	4.310																															-323.59982	1236.34607	1675.53821				-366.08289	974.95087	1733.38098							-288.67184	560.11133	1792.24719										
433	4.320																															-321.85489	1238.03552	1677.65625				-363.84100	976.53583	1733.87891							-284.78122	565.36072	1790.75366										
434	4.330																															-320.07477	1239.90930	1677.41602				-361.83951	976.82379	1736.49060							-281.66443	569.41150	1786.55029										
435	4.340																															-318.11710	1241.75366	1678.60193				-359.47906	977.93805	1735.50708							-279.60632	574.89301	1781.01575										
436	4.350																															-316.70178	1243.36865	1677.93652				-357.33356	979.47961	1737.15918							-278.43903	577.43579	1777.45654										
437	4.360																															-314.89273	1244.75391	1678.08655				-355.31168	979.46198	1738.87000							-277.92410	579.18103	1774.90808										
438	4.370																															-312.76138	1246.23779	1678.61621				-353.61337	980.34857	1737.66870							-277.56134	582.84912	1771.41760										
439	4.380																															-311.17023	1247.14697	1678.89465				-351.54346	982.22028	1738.60120							-277.26511	583.20325	1771.15173										
440	4.390																																					-349.37753	982.54785	1740.00891							-277.34802	583.18158	1768.35620										
441	4.400																																					-347.92072	983.62042	1738.17273							-277.91254	582.79254	1765.52759										
442	4.410																																					-346.18039	983.37793	1743.69873							-278.75632	582.03931	1765.31433										
443	4.420																																					-344.24872	983.62152	1744.03455							-279.55487	580.27368	1761.80933										
444	4.430																																					-341.89819	984.64746	1743.45374							-280.48785	577.69550	1761.48853										
445	4.440																																					-339.14850	984.83160	1744.12805							-281.44235	573.43475	1762.26135										
446	4.450																																					-336.27325	984.48779	1748.14355							-283.43881	568.70306	1760.24792										
447	4.460																																					-332.84055	984.19971	1748.60168							-284.82324	564.21497	1760.81934										
448	4.470																																					-329.27863	983.97583	1750.32275							-286.01535	559.28790	1758.33740										
449	4.480																																					-325.69522	983.48181	1752.02026							-288.88806	552.43158	1760.88831										
450	4.490																																					-321.48569	981.59491	1754.54578							-290.53250	545.99652	1759.17664										
451	4.500																																					-317.32886	980.77014	1757.59485							-293.73007	539.26495	1762.31824										
452	4.510																																					-313.21210	980.91473	1756.52710							-296.16592	533.05603	1761.26245										
453	4.520																																					-308.86780	979.48096	1756.79382							-299.09726	526.45538	1765.96948										
454	4.530																																					-305.36481	978.65259	1758.59058							-301.02472	525.44159	1768.16174										
455	4.540																																					-301.52570	976.56299	1761.58411							-302.87451	525.76477	1775.50342										
456	4.550																																					-298.74210	977.04254	1762.42822							-303.61249	528.50983	1777.70361										
